<?xml version="1.0" standalone="no"?>
<!DOCTYPE svg PUBLIC "-//W3C//DTD SVG 20010904//EN"
 "http://www.w3.org/TR/2001/REC-SVG-20010904/DTD/svg10.dtd">
<svg version="1.0" xmlns="http://www.w3.org/2000/svg"
 width="256.000000pt" height="256.000000pt" viewBox="0 0 256.000000 256.000000"
 preserveAspectRatio="xMidYMid meet">
<metadata>
Created by potrace 1.11, written by Peter Selinger 2001-2013
</metadata>
<g transform="translate(0.000000,256.000000) scale(0.100000,-0.100000)"
fill="#000000" stroke="none">
<path d="M530 2530 c12 -16 19 -34 15 -39 -3 -5 0 -13 6 -17 8 -5 10 -2 5 7
-4 8 -1 5 8 -5 16 -20 12 -41 -6 -30 -7 4 -8 2 -4 -4 4 -6 14 -8 23 -5 13 5
15 2 10 -11 -4 -10 -3 -15 3 -11 11 7 52 -69 43 -79 -4 -3 2 -6 11 -6 12 0 16
-5 13 -14 -3 -8 0 -17 8 -19 17 -7 46 -67 38 -80 -3 -6 -1 -7 5 -3 7 4 18 -7
28 -26 9 -18 23 -41 31 -50 9 -10 13 -24 9 -33 -4 -11 -2 -14 6 -9 7 5 9 2 5
-9 -4 -10 -2 -14 6 -11 7 2 18 -8 24 -23 7 -16 18 -36 25 -45 10 -14 9 -21 -7
-40 l-20 -23 23 20 c20 16 25 17 32 5 6 -8 10 -19 10 -23 0 -4 9 -17 19 -29
11 -11 18 -25 15 -32 -3 -8 32 -11 123 -10 79 1 134 -3 142 -10 11 -8 13 -8 7
2 -6 10 5 12 46 10 29 -2 59 -7 67 -12 10 -6 12 -5 7 2 -8 14 51 11 73 -2 10
-6 12 -5 7 2 -10 17 56 16 73 0 11 -10 13 -10 7 0 -5 8 0 12 14 12 12 0 19 -4
15 -9 -3 -5 -1 -13 5 -16 6 -4 9 -1 8 7 -2 7 4 13 12 13 8 0 14 -6 12 -13 -1
-8 2 -11 8 -7 6 3 8 10 5 15 -7 12 78 10 93 -2 10 -9 12 -8 10 3 -2 8 3 13 10
11 8 -1 11 2 7 8 -4 6 13 41 37 78 24 37 50 79 57 94 8 15 17 25 21 23 4 -3 7
3 6 13 0 9 4 16 11 15 7 -2 10 3 7 11 -3 7 2 20 10 29 8 8 12 17 9 21 -4 3 -1
6 5 6 7 0 12 7 12 15 0 8 9 24 20 35 11 11 20 23 21 28 1 4 5 6 10 5 4 -2 6 4
3 11 -3 8 4 24 15 35 12 12 21 23 21 26 -2 16 54 103 63 98 6 -3 7 -1 3 6 -4
6 6 34 23 61 17 28 31 52 31 55 0 3 -347 5 -771 5 l-770 0 21 -30z"/>
<path d="M2010 2459 c0 -5 5 -7 10 -4 6 3 10 8 10 11 0 2 -4 4 -10 4 -5 0 -10
-5 -10 -11z"/>
<path d="M586 2362 c-3 -5 1 -9 9 -9 8 0 12 4 9 9 -3 4 -7 8 -9 8 -2 0 -6 -4
-9 -8z"/>
<path d="M656 2262 c-3 -5 1 -9 9 -9 8 0 12 4 9 9 -3 4 -7 8 -9 8 -2 0 -6 -4
-9 -8z"/>
<path d="M1850 2201 c0 -6 4 -13 10 -16 6 -3 7 1 4 9 -7 18 -14 21 -14 7z"/>
<path d="M856 1943 c-6 -14 -5 -15 5 -6 7 7 10 15 7 18 -3 3 -9 -2 -12 -12z"/>
<path d="M1055 1860 c3 -5 8 -10 11 -10 2 0 4 5 4 10 0 6 -5 10 -11 10 -5 0
-7 -4 -4 -10z"/>
<path d="M1080 1840 c-9 -6 -10 -10 -3 -10 6 0 15 5 18 10 8 12 4 12 -15 0z"/>
<path d="M1235 1840 c-3 -5 -1 -10 4 -10 6 0 11 5 11 10 0 6 -2 10 -4 10 -3 0
-8 -4 -11 -10z"/>
<path d="M1255 1671 c-3 -5 -2 -12 3 -15 5 -3 9 1 9 9 0 17 -3 19 -12 6z"/>
<path d="M1255 1628 c-80 -10 -85 -11 -122 -31 -18 -10 -33 -14 -33 -10 0 5
-5 0 -11 -10 -6 -9 -14 -15 -20 -12 -5 4 -9 -1 -9 -9 0 -10 -6 -13 -15 -9 -10
3 -15 0 -13 -8 2 -8 -3 -13 -10 -11 -8 1 -11 -2 -7 -8 3 -5 -1 -13 -9 -16 -9
-3 -13 -10 -10 -15 3 -5 0 -9 -6 -9 -6 0 -8 -4 -5 -10 3 -5 -3 -15 -14 -21
-10 -7 -17 -19 -14 -26 3 -7 1 -13 -4 -13 -5 0 -9 -8 -10 -17 -1 -10 -5 -45
-9 -79 -4 -36 -2 -82 5 -114 9 -42 9 -55 -1 -62 -9 -6 -7 -8 7 -6 14 2 20 -2
19 -15 -1 -10 0 -16 3 -13 3 3 19 -14 36 -37 17 -23 35 -45 41 -49 20 -12 51
-40 37 -32 -9 5 -12 3 -7 -5 4 -6 11 -9 16 -6 10 6 80 -25 80 -36 0 -3 51 -6
112 -6 82 0 116 4 127 14 7 8 18 12 25 10 6 -2 19 5 28 16 9 10 28 20 41 21
14 0 23 6 20 12 -2 7 4 18 14 25 22 16 83 110 83 127 0 7 8 12 18 12 11 0 13
3 6 8 -8 5 -10 28 -5 74 4 43 3 72 -3 79 -8 9 -7 10 4 4 13 -7 13 -6 2 7 -7 9
-14 29 -15 46 -1 16 -5 28 -9 25 -5 -2 -8 5 -8 16 0 12 -4 21 -9 21 -5 0 -12
8 -16 19 -8 27 -84 101 -103 101 -15 0 -15 2 -2 10 12 8 10 10 -11 10 -33 0
-42 9 -26 29 10 14 10 14 -5 3 -13 -11 -26 -11 -70 0 -36 10 -72 11 -113 6z"/>
<path d="M1675 1300 c3 -5 8 -10 11 -10 2 0 4 5 4 10 0 6 -5 10 -11 10 -5 0
-7 -4 -4 -10z"/>
<path d="M976 1067 c3 -10 9 -15 12 -12 3 3 0 11 -7 18 -10 9 -11 8 -5 -6z"/>
<path d="M1135 940 c3 -5 8 -10 11 -10 2 0 4 5 4 10 0 6 -5 10 -11 10 -5 0 -7
-4 -4 -10z"/>
<path d="M1160 880 c-9 -6 -10 -10 -3 -10 6 0 15 5 18 10 8 12 4 12 -15 0z"/>
<path d="M1090 700 c0 -5 5 -10 11 -10 5 0 7 5 4 10 -3 6 -8 10 -11 10 -2 0
-4 -4 -4 -10z"/>
<path d="M1214 692 c4 -7 -40 -10 -148 -8 -85 1 -153 -1 -150 -5 2 -4 -10 -25
-26 -48 -17 -22 -28 -41 -25 -41 3 0 -2 -11 -11 -25 -14 -21 -19 -23 -33 -13
-14 12 -14 11 -3 -4 19 -23 6 -43 -16 -26 -15 11 -15 11 -4 -3 15 -20 6 -49
-17 -50 -10 0 -11 -2 -3 -6 9 -3 7 -12 -8 -33 -11 -15 -20 -33 -20 -39 0 -6
-4 -11 -9 -11 -5 0 -11 -9 -14 -21 -3 -12 -10 -18 -16 -15 -5 4 -13 1 -17 -5
-5 -8 -3 -9 6 -4 15 9 13 5 -24 -63 -16 -28 -33 -52 -38 -52 -5 0 -6 -5 -3
-10 3 -6 -1 -13 -9 -16 -9 -3 -14 -9 -11 -14 2 -4 -3 -16 -13 -26 -9 -11 -18
-26 -20 -34 -2 -8 -9 -18 -15 -22 -7 -4 -9 -8 -4 -8 4 0 -4 -18 -18 -40 -14
-22 -25 -42 -25 -45 0 -3 344 -5 765 -5 421 0 765 3 765 8 0 4 -7 18 -16 30
-8 12 -12 22 -9 22 3 0 -3 10 -15 22 -11 12 -20 26 -20 30 0 5 -10 22 -22 39
-18 24 -20 32 -9 38 9 6 10 11 2 15 -6 4 -11 2 -11 -4 0 -6 -4 -8 -10 -5 -5 3
-10 14 -10 25 0 10 -7 21 -16 24 -10 4 -13 13 -9 28 4 15 3 18 -2 10 -7 -9
-16 0 -33 30 -13 24 -26 45 -30 48 -18 14 -70 121 -64 131 4 7 3 9 -4 6 -11
-8 -74 95 -70 115 2 7 -3 12 -9 11 -7 -2 -20 11 -28 27 -16 31 -19 32 -100 32
-27 0 -56 5 -64 12 -12 8 -13 8 -7 -1 5 -10 -2 -13 -26 -13 -19 0 -40 6 -47
13 -11 9 -12 9 -7 0 8 -14 -50 -13 -73 1 -10 6 -12 5 -7 -3 9 -14 -90 -11
-113 3 -9 6 -12 5 -7 -2z"/>
<path d="M1790 456 c0 -2 8 -10 18 -17 15 -13 16 -12 3 4 -13 16 -21 21 -21
13z"/>
<path d="M695 391 c-3 -5 -2 -12 3 -15 5 -3 9 1 9 9 0 17 -3 19 -12 6z"/>
<path d="M1873 335 c0 -8 4 -12 9 -9 5 3 6 10 3 15 -9 13 -12 11 -12 -6z"/>
<path d="M656 298 c3 -5 10 -6 15 -3 13 9 11 12 -6 12 -8 0 -12 -4 -9 -9z"/>
<path d="M530 125 c0 -5 5 -17 10 -25 5 -8 10 -10 10 -5 0 6 -5 17 -10 25 -5
8 -10 11 -10 5z"/>
</g>
</svg>
